<svg xmlns="http://www.w3.org/2000/svg" width="478.689" height="452.935" viewBox="0 0 478.689 452.935"><defs><style>.a{fill:#4a4c55;}</style></defs><path class="a" d="M77.206,304.659,153.38,232.6l43.478,41.142-21.723,20.629L153.38,273.744,120.75,304.659l32.631,30.874L229.536,263.5l21.746,20.6-97.9,92.623ZM479.781,232.7l-97.967,92.632,21.8,20.606,76.169-72.078,32.612,30.9-32.612,30.861-21.8-20.553-21.741,20.553,43.539,41.178,76.113-72.039ZM283.913,294.368,305.7,273.762l-76.165-72.021,32.612-30.865,21.765,20.589L305.7,170.876l-43.553-41.209L186,201.741Zm65.271,20.585-21.746,20.579,76.174,72.042-32.65,30.875-21.779-20.571L327.438,438.45l43.524,41.195,76.142-72.07ZM273.071,222.3l21.745,20.6,21.723-20.6,76.194,72.065,21.7-20.629-76.066-72,32.593-30.879,32.65,30.879-21.8,20.562,21.8,20.6,43.491-41.16-76.142-72.1Zm43.468,164.728-76.127-72.078L218.67,335.506l76.146,72.069-32.668,30.883-32.6-30.883,21.737-20.544L229.55,366.443,186,407.575l76.146,72.07,97.916-92.614-21.741-20.589ZM360.063,284.07,338.322,263.5l-65.247,61.757,21.746,20.589ZM316.539,78.2l-32.621,30.9,32.621,30.874L349.183,109.1Zm0,391.16-32.621,30.856,32.621,30.919,32.645-30.919Z" transform="translate(-77.206 -78.2)"/></svg>